# xmcd
#
# Track frame offsets:
#	150
#	18294
#	34493
#	56412
#	76865
#	115584
#	131340
#	156317
#	177675
#
# Disc length: 2789 seconds
#
# Revision: 0
# Processed by: cddbd v1.5.2PL0 Copyright (c) Steve Scherf et al.
# Submitted via: audiograbber 1.83.01
#
DISCID=6d0ae309
DTITLE=Catfish Howl Blues Band - Midnight Mojo
DYEAR=2009
DGENRE=Blues
TTITLE0=Fast Women and Fine Whisky
TTITLE1=My Sweet Honey Bee
TTITLE2=My MaryAnne
TTITLE3=Mojo After Midnight
TTITLE4=Called My Best Friend
TTITLE5=Shake it Like That
TTITLE6=Used by You
TTITLE7=Leather Girl
TTITLE8=Life of a Blues Man
EXTD=
EXTT0=
EXTT1=
EXTT2=
EXTT3=
EXTT4=
EXTT5=
EXTT6=
EXTT7=
EXTT8=
PLAYORDER=
